<?xml version="1.0" encoding="utf-8"?>
<!-- Generator: Adobe Illustrator 17.0.0, SVG Export Plug-In . SVG Version: 6.00 Build 0)  -->
<!DOCTYPE svg PUBLIC "-//W3C//DTD SVG 1.1//EN" "http://www.w3.org/Graphics/SVG/1.1/DTD/svg11.dtd">
<svg version="1.1" id="Layer_1" xmlns="http://www.w3.org/2000/svg" xmlns:xlink="http://www.w3.org/1999/xlink" x="0px" y="0px"
	 width="32px" height="32px" viewBox="0 0 32 32" enable-background="new 0 0 32 32" xml:space="preserve">
<g id="location">
	<path fill="#D12935" d="M17,1.559c-5.973,0-10.831,4.798-10.831,10.831c0,6.318,5.416,12.781,9.365,17.323
		c0.014,0.018,0.648,0.727,1.431,0.727c0.002,0,0.066,0,0.069,0c0.783,0,1.417-0.708,1.431-0.727
		c3.95-4.542,9.366-11.005,9.366-17.323C27.832,6.357,22.974,1.559,17,1.559z"/>
	<path fill="#FFE5E7" d="M17.002,17.746c3.309,0,6-2.692,6-6s-2.691-6-6-6s-6,2.691-6,6S13.693,17.746,17.002,17.746z"/>
	<path fill="#FFE5E7" d="M17,0C10.382,0,5,5.316,5,12.001c0,7,6.001,14.161,10.376,19.194C15.392,31.215,16.094,32,16.962,32
		c0.002,0,0.073,0,0.077,0c0.867,0,1.57-0.785,1.586-0.805c4.377-5.033,10.377-12.193,10.377-19.194C29.002,5.316,23.619,0,17,0z
		 M17.117,29.883c-0.021,0.02-0.082,0.064-0.135,0.098c-0.01-0.027-0.084-0.086-0.129-0.133C13.188,25.631,7,18.514,7,12.001
		C7,6.487,11.487,2,17,2c5.516,0,10.002,4.487,10.002,10.002C27.002,18.514,20.814,25.631,17.117,29.883z"/>
</g>
</svg>
