<svg xmlns="http://www.w3.org/2000/svg" xmlns:xlink="http://www.w3.org/1999/xlink" version="1.1" id="Your_Icon" x="0px" y="0px" width="100px" height="100px" viewBox="0 0 100 100" enable-background="new 0 0 100 100" xml:space="preserve">
<g>
	<g>
		<g>
			<g>
			</g>
		</g>
		<g>
		</g>
	</g>
</g>
<g>
	<path d="M69.74,29.541c0-13.488-10.934-24.422-24.422-24.422c-13.488,0-24.422,10.934-24.422,24.422s24.422,51.558,24.422,51.558   S69.74,43.029,69.74,29.541z M37.177,29.995c0-4.495,3.645-8.141,8.141-8.141c4.496,0,8.141,3.645,8.141,8.141   c0,4.496-3.645,8.141-8.141,8.141C40.822,38.136,37.177,34.491,37.177,29.995z"/>
	<path d="M64.385,67.162c-2.152-0.686-4.433,0.509-5.109,2.65c-0.681,2.144,0.506,4.431,2.65,5.109   c5.761,1.826,7.701,4.041,7.701,4.77c0,2.046-8.517,7.049-24.308,7.049c-15.79,0-24.308-5.003-24.308-7.049   c0-0.729,1.937-2.941,7.693-4.767c2.142-0.678,3.328-2.968,2.649-5.109c-0.68-2.146-2.968-3.328-5.11-2.65   C14.607,70.854,12.87,76.596,12.87,79.691c0,9.972,16.324,15.19,32.449,15.19s32.449-5.218,32.449-15.19   C77.767,76.596,76.029,70.854,64.385,67.162z"/>
</g>
</svg>