<svg xmlns="http://www.w3.org/2000/svg" xmlns:xlink="http://www.w3.org/1999/xlink" version="1.1" id="Your_Icon" x="0px" y="0px" width="100px" height="100px" viewBox="0 0 100 100" enable-background="new 0 0 100 100" xml:space="preserve">
<path d="M87.25,61.52c-0.939-0.506-4.777-2.909-5.59-3.419c0.221-1.47,0.34-3.077,0.34-4.851C82,39.12,77.666,26,69,18  c-1.893-1.747-5.152-2.758-8.503-3.33c0-0.016,0.003-0.029,0.003-0.045C60.5,11.523,57.079,9,52.875,9  c-4.154,0-7.536,2.464-7.617,5.514c-3.353,0.483-6.743,1.353-8.924,2.819C26.347,24.046,22.75,38.877,22.75,53.25  c0,1.734,0.098,3.307,0.277,4.75H23c0,0-4.102,1.942-5.25,2.56c-7.079,3.81,3.038,11.442,8.625,15.815  c5.75,4.5,17.005,12.537,26.375,12.5c9.013-0.036,16.654-6.057,22.125-10.25C80.625,74.218,94.324,65.333,87.25,61.52z M52.875,10  c3.653,0,6.625,2.075,6.625,4.625c0,2.15-1.93,2.375-6.333,2.375c-4.304,0-6.917-0.16-6.917-2.375C46.25,12.075,49.222,10,52.875,10  z M63,54h-5.783l-4.342,4.342L48.533,54H44v-4.533l-4.592-4.592L44,40.283V35h5.283l3.592-3.592L56.467,35H63v6.533l3.342,3.342  L63,48.217V54z"/>
<path d="M53.031,35c-5.178,0-9.375,4.197-9.375,9.375s4.197,9.375,9.375,9.375s9.375-4.197,9.375-9.375S58.209,35,53.031,35z   M53.063,52.188c-4.298,0-7.781-3.483-7.781-7.781s3.483-7.781,7.781-7.781s7.781,3.483,7.781,7.781S57.36,52.188,53.063,52.188z"/>
</svg>