<?xml version="1.0" encoding="utf-8"?>
<!-- Generator: Adobe Illustrator 17.0.0, SVG Export Plug-In . SVG Version: 6.00 Build 0)  -->
<!DOCTYPE svg PUBLIC "-//W3C//DTD SVG 1.1//EN" "http://www.w3.org/Graphics/SVG/1.1/DTD/svg11.dtd">
<svg version="1.1" id="Layer_1" xmlns="http://www.w3.org/2000/svg" xmlns:xlink="http://www.w3.org/1999/xlink" x="0px" y="0px"
	 width="32px" height="32px" viewBox="0 0 32 32" enable-background="new 0 0 32 32" xml:space="preserve">
<path id="path2996" sodipodi:cx="8.7330513" sodipodi:type="arc" sodipodi:rx="5.3389831" sodipodi:ry="5.3389831" sodipodi:cy="9.1525421" fill="#96F286" d="
	M28.482,15.872c0,6.994-5.669,12.663-12.663,12.663S3.157,22.865,3.157,15.872S8.826,3.209,15.819,3.209S28.482,8.878,28.482,15.872
	z"/>
<path id="path3011" sodipodi:cx="8.4661016" sodipodi:type="arc" sodipodi:rx="2.2881355" sodipodi:ry="2.2881355" sodipodi:cy="5.0338984" fill="#2BD012" d="
	M26.218,15.872c0,5.743-4.655,10.399-10.398,10.4c-5.743,0-10.399-4.655-10.4-10.398c0-0.001,0-0.001,0-0.002
	c0-5.743,4.655-10.399,10.398-10.4s10.399,4.655,10.4,10.398C26.218,15.871,26.218,15.871,26.218,15.872z"/>
</svg>
