<?xml version="1.0" encoding="utf-8"?>
<!-- Generator: Adobe Illustrator 17.0.0, SVG Export Plug-In . SVG Version: 6.00 Build 0)  -->
<!DOCTYPE svg PUBLIC "-//W3C//DTD SVG 1.1//EN" "http://www.w3.org/Graphics/SVG/1.1/DTD/svg11.dtd">
<svg version="1.1" id="Layer_1" xmlns="http://www.w3.org/2000/svg" xmlns:xlink="http://www.w3.org/1999/xlink" x="0px" y="0px"
	 width="32px" height="32px" viewBox="0 0 32 32" enable-background="new 0 0 32 32" xml:space="preserve">
<path fill="#F70606" d="M16.667,1.24c-2.608,0-4.723,2.114-4.723,4.723c0,2.101,1.372,3.881,3.269,4.493l1.368,20.559h0.428
	l1.125-20.564c1.889-0.617,3.255-2.393,3.255-4.489C21.39,3.354,19.276,1.24,16.667,1.24z M17.302,9.212
	c0.812-0.755,1.271-2.085,1.109-3.536c-0.162-1.452-0.903-2.647-1.861-3.204c1.584-0.172,3.034,1.192,3.242,3.05
	C19.999,7.38,18.885,9.03,17.302,9.212z"/>
</svg>
